HIERARCHY
ROOT Hips
{
	OFFSET 0.000000 88.474243 0.000000
	CHANNELS 6 Xposition Yposition Zposition Zrotation Yrotation Xrotation 
	JOINT Hips_Spine
	{
		OFFSET 0.000000 0.000000 0.000000
		CHANNELS 3 Zrotation Yrotation Xrotation
		JOINT Spine
		{
			OFFSET 0.005100 8.711998 -0.691000
			CHANNELS 3 Zrotation Yrotation Xrotation
			JOINT Spine1
			{
				OFFSET -0.009200 8.660301 -1.275000
				CHANNELS 3 Zrotation Yrotation Xrotation
				JOINT Spine2
				{
					OFFSET 0.006300 9.852501 -1.857000
					CHANNELS 3 Zrotation Yrotation Xrotation
					JOINT Spine2_Neck
					{
						OFFSET 0.000000 0.000000 0.000000
						CHANNELS 3 Zrotation Yrotation Xrotation
						JOINT Neck
						{
							OFFSET 0.016300 11.420799 -0.263300
							CHANNELS 3 Zrotation Yrotation Xrotation
							End Site #name: Head
							{
								OFFSET -0.019200 9.262405 2.362500
							}
						}
					}
					JOINT Spine2_LeftShoulder
					{
						OFFSET 0.000000 0.000000 0.000000
						CHANNELS 3 Zrotation Yrotation Xrotation
						JOINT LeftShoulder
						{
							OFFSET 5.616900 6.732201 -0.345700
							CHANNELS 3 Zrotation Yrotation Xrotation
							JOINT LeftArm
							{
								OFFSET 10.664888 -0.183372 -2.440700
								CHANNELS 3 Zrotation Yrotation Xrotation
								JOINT LeftForeArm
								{
									OFFSET 27.459126 0.000000 0.000000
									CHANNELS 3 Zrotation Yrotation Xrotation
									End Site #name: LeftHand
									{
										OFFSET 21.306858 0.000000 0.000000
									}
								}
							}
						}
					}
					JOINT Spine2_RightShoulder
					{
						OFFSET 0.000000 0.000000 0.000000
						CHANNELS 3 Zrotation Yrotation Xrotation
						JOINT RightShoulder
						{
							OFFSET -5.580300 6.737503 -0.344400
							CHANNELS 3 Zrotation Yrotation Xrotation
							JOINT RightArm
							{
								OFFSET -10.679335 -0.188484 -2.383900
								CHANNELS 3 Zrotation Yrotation Xrotation
								JOINT RightForeArm
								{
									OFFSET -27.503529 0.000000 0.000000
									CHANNELS 3 Zrotation Yrotation Xrotation
									End Site #name: RightHand
									{
										OFFSET -21.306808 0.000000 0.000000
									}
								}
							}
						}
					}
				}
			}
		}
	}
	JOINT Hips_LeftUpLeg
	{
		OFFSET 0.000000 0.000000 0.000000
		CHANNELS 3 Zrotation Yrotation Xrotation
		JOINT LeftUpLeg
		{
			OFFSET 6.857700 -6.739601 0.312100
			CHANNELS 3 Zrotation Yrotation Xrotation
			JOINT LeftLeg
			{
				OFFSET -0.367590 -34.731552 -4.572400
				CHANNELS 3 Zrotation Yrotation Xrotation
				End Site #name: LeftFoot
				{
					OFFSET 0.367590 -34.656704 -6.067400
				}
			}
		}
	}
	JOINT Hips_RightUpLeg
	{
		OFFSET 0.000000 0.000000 0.000000
		CHANNELS 3 Zrotation Yrotation Xrotation
		JOINT RightUpLeg
		{
			OFFSET -6.876100 -6.733299 0.301000
			CHANNELS 3 Zrotation Yrotation Xrotation
			JOINT RightLeg
			{
				OFFSET 0.347353 -34.795158 -4.515900
				CHANNELS 3 Zrotation Yrotation Xrotation
				End Site #name: RightFoot
				{
					OFFSET -0.347353 -34.589367 -6.070300
				}
			}
		}
	}
}
MOTION
Frames: 14
Frame Time: 0.041667
0.182170 0.051033 0.012876 -0.400733 15.838813 -7.313115 0.000000 0.000000 0.000000 -1.174699 -1.266915 0.500273 -0.454263 -1.291756 1.167503 0.000000 0.000000 0.000000 -0.061398 -0.786218 -0.307750 2.238229 -0.635991 -3.114530 0.446054 -1.540980 -1.011236 -17.181796 -11.718528 2.406133 -46.672483 0.896079 16.054844 0.447800 -24.155714 4.800698 -0.426652 -0.852608 0.759492 15.499228 11.251216 3.913500 57.427626 -2.236684 -5.288496 -0.440960 50.130291 0.781747 0.000000 0.000000 0.000000 -8.487690 15.185329 -4.177599 0.189824 2.796768 19.289153 0.000000 0.000000 0.000000 -1.793491 5.399962 -4.048084 4.107734 -1.404077 -6.021324 
0.630848 -0.002969 0.208107 0.942273 18.079296 -8.223457 0.000000 0.000000 0.000000 -3.229462 -0.778982 -0.366646 -0.050029 -1.028438 0.332536 0.000000 0.000000 0.000000 -0.385661 -0.664043 -0.960634 3.679292 -1.669095 -2.774980 -0.154405 -1.213490 -1.603238 -23.776685 -7.714445 0.644468 -41.456911 3.999557 11.065865 -0.669258 -19.225912 2.577866 -0.547788 -0.989019 0.129980 16.120890 7.749219 1.780588 60.115746 0.984433 -0.930839 -0.380762 43.061422 -0.512659 0.000000 0.000000 -0.000000 -10.183206 14.581561 -2.655941 -0.942054 4.542766 18.524756 0.000000 0.000000 0.000000 -5.082828 5.747527 -3.144567 4.239699 -2.687798 -5.109436 
0.927774 -0.017745 0.257856 1.968749 18.630051 -8.331212 -0.000000 0.000000 0.000000 -3.832621 -0.642539 -0.176774 -0.090641 -0.534264 -0.224578 0.000000 0.000000 0.000000 0.078785 -0.849302 -1.439175 3.938513 -1.997114 -4.256339 -0.369414 -0.870749 -1.620085 -29.145866 -6.031974 -0.221359 -41.191674 12.195358 4.391997 -0.891461 -18.840592 2.558226 -0.293273 -0.809748 -0.230713 15.235381 6.988871 1.886466 59.617319 3.379465 -0.459449 -0.004599 35.427131 -0.409717 0.000000 0.000000 -0.000000 -11.640135 14.035800 -1.679791 -1.881054 5.051949 17.991206 0.000000 0.000000 0.000000 -7.058401 4.959836 -4.513724 4.131160 -4.848345 -1.840870 
1.250393 -0.042607 0.254817 2.375838 18.354323 -7.982802 -0.000000 0.000000 0.000000 -4.490860 -0.467766 0.340551 0.071597 -0.342148 -0.528207 0.000000 0.000000 0.000000 0.457913 -0.819510 -1.565262 4.066135 -2.503976 -4.318584 -0.155867 -0.835081 -1.650332 -33.693612 -4.810340 -0.676348 -39.949205 14.065393 3.543213 -0.629647 -18.863043 3.871451 0.112396 -0.751294 -0.305248 14.113948 6.801397 1.938852 59.635732 6.958778 -2.979866 0.253879 35.551898 -0.339935 0.000000 0.000000 -0.000000 -12.801679 13.532715 -1.625359 -2.175325 5.303206 17.341442 0.000000 0.000000 0.000000 -8.211036 3.746581 -6.680456 3.409855 -5.491051 2.423446 
1.624954 -0.059634 0.223889 2.519320 18.441144 -7.547329 -0.000000 0.000000 0.000000 -5.267875 -0.036344 0.312621 0.171504 -0.235159 -0.628945 0.000000 0.000000 0.000000 0.632509 -0.783373 -1.654016 4.026225 -3.031634 -3.981179 0.001926 -0.773146 -1.643255 -37.456407 -3.953364 -0.713371 -37.079190 13.327874 5.383868 -0.294906 -16.529174 5.476814 0.218032 -0.657313 -0.230770 13.034995 6.652977 1.853034 60.859580 8.054624 -5.975418 0.327732 35.391633 -0.431649 0.000000 0.000000 -0.000000 -13.647560 13.210391 -1.962657 -2.270544 5.358376 17.109784 0.000000 0.000000 0.000000 -9.100464 2.636891 -8.515245 2.879796 -5.225002 6.154777 
2.035806 -0.071655 0.189147 2.519343 18.542999 -7.343116 -0.000000 0.000000 0.000000 -6.037929 0.193260 0.235063 0.145091 -0.184487 -0.615774 0.000000 0.000000 0.000000 0.594484 -0.777116 -1.701306 3.965846 -3.408602 -3.494546 0.022451 -0.769189 -1.645233 -39.915191 -3.270235 -0.600423 -34.769790 12.171496 7.104966 -0.073693 -12.579010 6.406591 0.215892 -0.649590 -0.205023 11.965643 6.649806 1.811206 62.227805 7.755749 -7.644928 0.396420 34.611441 -0.458170 0.000000 0.000000 -0.000000 -14.221677 13.155317 -2.268266 -2.251771 5.234193 17.200998 0.000000 0.000000 0.000000 -9.674243 2.039917 -9.318485 2.887170 -3.940871 8.145012 
2.455481 -0.074861 0.155594 2.417433 18.623614 -7.319318 -0.000000 0.000000 0.000000 -6.433716 0.318987 0.150535 0.091437 -0.140549 -0.630350 0.000000 0.000000 0.000000 0.474974 -0.765269 -1.664286 3.760091 -3.693430 -2.983492 -0.033229 -0.771623 -1.635288 -41.371567 -2.528913 -0.546203 -33.152958 11.093776 8.772593 0.129518 -8.231493 6.733056 0.141101 -0.627197 -0.189775 11.430821 6.638115 1.798136 63.285079 7.063713 -9.064513 0.469774 33.877051 -0.433061 0.000000 0.000000 -0.000000 -14.620527 13.124500 -2.538681 -2.154313 5.028360 17.549809 0.000000 0.000000 0.000000 -10.044199 1.699208 -9.511737 3.103758 -2.362735 9.111246 
2.855054 -0.070630 0.127112 2.258882 18.770574 -7.301747 -0.000000 0.000000 0.000000 -6.621870 0.461304 -0.017395 -0.009068 -0.066868 -0.654246 0.000000 0.000000 0.000000 0.337732 -0.703411 -1.630079 3.467357 -3.790715 -2.566871 -0.149764 -0.733623 -1.633365 -42.137653 -2.000983 -0.488787 -32.292001 10.123788 9.742035 0.190571 -5.187128 6.517043 0.032925 -0.559358 -0.205197 11.214336 6.645360 1.779538 64.114109 5.840965 -10.386516 0.550587 33.453236 -0.422412 0.000000 0.000000 -0.000000 -14.859536 12.983758 -2.865423 -2.009113 4.788789 18.036065 0.000000 0.000000 0.000000 -10.242633 1.325214 -9.510233 3.160914 -1.086011 9.637819 
3.203037 -0.058802 0.107628 2.033264 18.984435 -7.236839 -0.000000 0.000000 0.000000 -6.685297 0.611366 -0.136649 -0.112855 0.045777 -0.728534 0.000000 0.000000 0.000000 0.224204 -0.612584 -1.616085 3.143386 -3.849603 -2.196565 -0.272349 -0.592197 -1.706188 -42.382129 -1.588867 -0.407340 -31.990587 9.686364 10.208167 0.192521 -3.593613 6.169711 -0.112435 -0.440603 -0.227476 11.090226 6.710835 1.765995 64.862826 5.042938 -11.341689 0.591910 32.497596 -0.338778 0.000000 0.000000 -0.000000 -14.954954 12.752780 -3.295984 -1.807690 4.558463 18.657452 0.000000 0.000000 0.000000 -10.278062 0.767045 -9.478358 2.948844 -0.297976 9.889685 
3.495129 -0.042157 0.093380 1.782653 19.137884 -7.138576 -0.000000 0.000000 0.000000 -6.776225 0.785378 -0.230495 -0.208606 0.186092 -0.833098 0.000000 0.000000 0.000000 0.139521 -0.516384 -1.640739 2.935364 -3.870453 -1.966828 -0.376544 -0.439344 -1.785791 -42.269081 -1.221517 -0.309559 -32.150554 9.717956 10.296389 0.136832 -3.076963 5.760543 -0.284653 -0.279390 -0.238765 11.042558 6.785810 1.743245 65.216046 4.619813 -11.389367 0.646118 31.388440 -0.274670 0.000000 0.000000 -0.000000 -14.935882 12.491116 -3.765346 -1.592241 4.369818 19.243805 0.000000 0.000000 0.000000 -10.193156 0.034755 -9.493122 2.671865 0.249515 9.959556 
3.726743 -0.021314 0.081973 1.522146 19.203289 -7.034993 -0.000000 0.000000 0.000000 -6.892436 0.969525 -0.243723 -0.297533 0.334046 -0.927928 0.000000 0.000000 0.000000 0.081563 -0.412345 -1.683637 2.836043 -3.859202 -1.836978 -0.462466 -0.273895 -1.864522 -41.901086 -0.857309 -0.212986 -32.640594 9.843087 10.225625 0.070672 -3.367015 5.461304 -0.442211 -0.101293 -0.240534 11.043591 6.838336 1.716738 65.269367 4.551988 -10.834316 0.705144 30.388809 -0.236671 0.000000 0.000000 -0.000000 -14.813501 12.215418 -4.254970 -1.411722 4.257383 19.756013 0.000000 0.000000 0.000000 -10.074680 -0.685081 -9.538685 2.417577 0.485892 9.910806 
3.893512 0.002736 0.070935 1.286415 19.180727 -6.937175 -0.000000 0.000000 0.000000 -7.004375 1.130975 -0.210063 -0.385755 0.453567 -0.972076 0.000000 0.000000 0.000000 0.022260 -0.315847 -1.719237 2.806808 -3.802739 -1.792085 -0.532538 -0.123924 -1.924504 -41.347580 -0.554546 -0.070343 -33.264761 9.909245 10.261833 0.030994 -3.946601 5.297297 -0.575391 0.069125 -0.231396 11.100151 6.845621 1.682655 65.036360 4.996661 -10.109438 0.734866 29.900203 -0.214233 0.000000 0.000000 -0.000000 -14.634258 11.975330 -4.683722 -1.266042 4.221999 20.108708 0.000000 0.000000 0.000000 -9.956181 -1.275675 -9.618973 2.125261 0.325435 9.825393 
3.991141 0.028879 0.057540 1.108294 19.058449 -6.846769 -0.000000 0.000000 0.000000 -7.050376 1.250983 -0.142278 -0.457044 0.548682 -1.011504 0.000000 0.000000 0.000000 -0.019333 -0.223310 -1.754466 2.795439 -3.775749 -1.755303 -0.583269 0.002794 -1.960709 -40.714335 -0.294195 0.092762 -33.944948 9.814534 10.448371 0.011316 -4.594646 5.244460 -0.672077 0.235921 -0.220643 11.228077 6.786159 1.639611 64.719540 5.566785 -9.051662 0.744957 29.943426 -0.216854 0.000000 0.000000 -0.000000 -14.432057 11.828720 -4.980696 -1.163777 4.252578 20.291205 0.000000 0.000000 0.000000 -9.839569 -1.720594 -9.644717 1.790004 -0.154286 9.529333 
4.026896 0.056488 0.040186 0.994864 18.762839 -6.758841 -0.000000 0.000000 0.000000 -7.028299 1.315225 -0.045893 -0.497737 0.617161 -1.058433 0.000000 0.000000 0.000000 -0.023375 -0.136653 -1.800088 2.776838 -3.778048 -1.698358 -0.605568 0.091933 -1.984766 -40.064729 -0.154299 0.325420 -34.610384 9.703736 10.780757 0.004972 -5.266874 5.252480 -0.710119 0.360051 -0.217702 11.437352 6.667212 1.595070 64.356736 6.150457 -8.028984 0.741767 30.432286 -0.226195 0.000000 0.000000 -0.000000 -14.247974 11.777818 -5.142655 -1.106192 4.324326 20.307130 0.000000 0.000000 0.000000 -9.722162 -2.059682 -9.641220 1.488827 -0.801960 9.114482 
